<?xml version="1.0" standalone="no"?><!DOCTYPE svg PUBLIC "-//W3C//DTD SVG 1.1//EN" "http://www.w3.org/Graphics/SVG/1.1/DTD/svg11.dtd"><svg t="1599611460668" class="icon" viewBox="0 0 1024 1024" version="1.1" xmlns="http://www.w3.org/2000/svg" p-id="4028" data-spm-anchor-id="a313x.7781069.0.i6" xmlns:xlink="http://www.w3.org/1999/xlink" width="32" height="32"><defs><style type="text/css"></style></defs><path d="M512.000213 1023.998293a508.670092 508.670092 0 0 1-362.025309-149.972771A508.45676 508.45676 0 0 1 0.002133 512.000213a508.499426 508.499426 0 0 1 149.972771-362.025309A508.542093 508.542093 0 0 1 512.000213 0.002133a508.499426 508.499426 0 0 1 362.025309 149.972771A508.499426 508.499426 0 0 1 1023.998293 512.000213a508.371427 508.371427 0 0 1-149.972771 361.982643A508.584759 508.584759 0 0 1 512.000213 1023.998293z m85.333014-682.664106a42.666507 42.666507 0 0 0-42.666507 42.666506v255.99904a42.666507 42.666507 0 0 0 42.666507 42.666507 42.666507 42.666507 0 0 0 42.666506-42.666507V384.000693a42.666507 42.666507 0 0 0-42.666506-42.666506z m-170.666027 0a42.666507 42.666507 0 0 0-42.666507 42.666506v255.99904a42.666507 42.666507 0 0 0 42.666507 42.666507 42.666507 42.666507 0 0 0 42.666507-42.666507V384.000693a42.666507 42.666507 0 0 0-42.666507-42.666506z" fill="#f4ea2a" p-id="4029" data-spm-anchor-id="a313x.7781069.0.i4" class="selected"></path></svg>